<mxfile host="65bd71144e">
    <diagram id="VwVoTesBe7b8CH1ANEC-" name="Page-1">
        <mxGraphModel dx="1001" dy="860" grid="1" gridSize="10" guides="1" tooltips="1" connect="1" arrows="1" fold="1" page="1" pageScale="1" pageWidth="827" pageHeight="1169" math="0" shadow="0">
            <root>
                <mxCell id="0"/>
                <mxCell id="1" parent="0"/>
                <mxCell id="8" value="" style="edgeStyle=none;html=1;" edge="1" parent="1" source="2" target="3">
                    <mxGeometry relative="1" as="geometry"/>
                </mxCell>
                <mxCell id="2" value="#voteRajesh people" style="shape=mxgraph.cisco.people.androgenous_person;html=1;pointerEvents=1;dashed=0;fillColor=#036897;strokeColor=#ffffff;strokeWidth=2;verticalLabelPosition=bottom;verticalAlign=top;align=center;outlineConnect=0;" vertex="1" parent="1">
                    <mxGeometry x="310" y="50" width="69" height="82" as="geometry"/>
                </mxCell>
                <mxCell id="11" value="" style="edgeStyle=none;html=1;" edge="1" parent="1" source="3" target="10">
                    <mxGeometry relative="1" as="geometry"/>
                </mxCell>
                <mxCell id="3" value="" style="rounded=0;whiteSpace=wrap;html=1;" vertex="1" parent="1">
                    <mxGeometry x="104" y="200" width="481" height="240" as="geometry"/>
                </mxCell>
                <mxCell id="4" value="&lt;b&gt;Rajesh Photo&lt;/b&gt;" style="rounded=0;whiteSpace=wrap;html=1;" vertex="1" parent="1">
                    <mxGeometry x="160" y="250" width="120" height="90" as="geometry"/>
                </mxCell>
                <mxCell id="5" value="Naresh Photo" style="rounded=0;whiteSpace=wrap;html=1;" vertex="1" parent="1">
                    <mxGeometry x="400" y="250" width="120" height="90" as="geometry"/>
                </mxCell>
                <mxCell id="6" value="Vote" style="rounded=0;whiteSpace=wrap;html=1;" vertex="1" parent="1">
                    <mxGeometry x="180" y="360" width="80" height="30" as="geometry"/>
                </mxCell>
                <mxCell id="7" value="Vote" style="rounded=0;whiteSpace=wrap;html=1;" vertex="1" parent="1">
                    <mxGeometry x="420" y="360" width="80" height="30" as="geometry"/>
                </mxCell>
                <mxCell id="13" value="" style="edgeStyle=none;html=1;" edge="1" parent="1" source="10" target="12">
                    <mxGeometry relative="1" as="geometry"/>
                </mxCell>
                <mxCell id="10" value="Tnumber&lt;br&gt;&quot;Rajesh&quot; or &quot;Naresh&quot;&lt;br&gt;&lt;br&gt;&lt;br&gt;&lt;br&gt;" style="triangle;whiteSpace=wrap;html=1;direction=south;" vertex="1" parent="1">
                    <mxGeometry x="270" y="470" width="160" height="90" as="geometry"/>
                </mxCell>
                <mxCell id="17" value="" style="edgeStyle=none;html=1;" edge="1" parent="1" source="12" target="15">
                    <mxGeometry relative="1" as="geometry"/>
                </mxCell>
                <mxCell id="12" value="Receive T# &amp;amp; Vote" style="rounded=1;whiteSpace=wrap;html=1;" vertex="1" parent="1">
                    <mxGeometry x="294" y="610" width="120" height="60" as="geometry"/>
                </mxCell>
                <mxCell id="14" value="sqllite DB" style="shape=cylinder3;whiteSpace=wrap;html=1;boundedLbl=1;backgroundOutline=1;size=15;" vertex="1" parent="1">
                    <mxGeometry x="490" y="700" width="60" height="80" as="geometry"/>
                </mxCell>
                <mxCell id="16" value="" style="edgeStyle=none;html=1;" edge="1" parent="1" source="15" target="14">
                    <mxGeometry relative="1" as="geometry"/>
                </mxCell>
                <mxCell id="15" value="Update T# record with vote" style="rounded=1;whiteSpace=wrap;html=1;" vertex="1" parent="1">
                    <mxGeometry x="294" y="710" width="120" height="60" as="geometry"/>
                </mxCell>
                <mxCell id="19" value="" style="edgeStyle=none;html=1;" edge="1" parent="1" source="18" target="14">
                    <mxGeometry relative="1" as="geometry"/>
                </mxCell>
                <mxCell id="18" value="Load T#s before&amp;nbsp;&lt;br&gt;campaign launch" style="rounded=1;whiteSpace=wrap;html=1;" vertex="1" parent="1">
                    <mxGeometry x="640" y="710" width="120" height="60" as="geometry"/>
                </mxCell>
                <mxCell id="22" value="Table Structure" style="swimlane;" vertex="1" parent="1">
                    <mxGeometry x="510" y="590" width="140" height="100" as="geometry"/>
                </mxCell>
                <mxCell id="24" value="vote (varchar2)" style="text;html=1;align=center;verticalAlign=middle;resizable=0;points=[];autosize=1;strokeColor=none;fillColor=none;" vertex="1" parent="22">
                    <mxGeometry x="10" y="65" width="100" height="20" as="geometry"/>
                </mxCell>
                <mxCell id="23" value="T_number (varchar2)" style="text;html=1;align=center;verticalAlign=middle;resizable=0;points=[];autosize=1;strokeColor=none;fillColor=none;" vertex="1" parent="22">
                    <mxGeometry x="10" y="40" width="130" height="20" as="geometry"/>
                </mxCell>
                <mxCell id="25" value="/voteforrajesh" style="text;html=1;align=center;verticalAlign=middle;resizable=0;points=[];autosize=1;strokeColor=none;fillColor=none;" vertex="1" parent="1">
                    <mxGeometry x="100" y="180" width="90" height="20" as="geometry"/>
                </mxCell>
                <mxCell id="33" value="" style="edgeStyle=none;html=1;" edge="1" parent="1" source="26" target="27">
                    <mxGeometry relative="1" as="geometry"/>
                </mxCell>
                <mxCell id="26" value="&lt;br&gt;Tell people who won" style="shape=mxgraph.cisco.people.androgenous_person;html=1;pointerEvents=1;dashed=0;fillColor=#036897;strokeColor=#ffffff;strokeWidth=2;verticalLabelPosition=bottom;verticalAlign=top;align=center;outlineConnect=0;" vertex="1" parent="1">
                    <mxGeometry x="46" y="922" width="69" height="82" as="geometry"/>
                </mxCell>
                <mxCell id="27" value="" style="whiteSpace=wrap;html=1;aspect=fixed;" vertex="1" parent="1">
                    <mxGeometry x="169.5" y="850" width="230" height="230" as="geometry"/>
                </mxCell>
                <mxCell id="29" value="&lt;b&gt;Rajesh&lt;/b&gt;" style="whiteSpace=wrap;html=1;aspect=fixed;" vertex="1" parent="1">
                    <mxGeometry x="195" y="900" width="80" height="80" as="geometry"/>
                </mxCell>
                <mxCell id="30" value="Naresh" style="whiteSpace=wrap;html=1;aspect=fixed;" vertex="1" parent="1">
                    <mxGeometry x="305" y="900" width="80" height="80" as="geometry"/>
                </mxCell>
                <mxCell id="31" value="Count" style="whiteSpace=wrap;html=1;aspect=fixed;" vertex="1" parent="1">
                    <mxGeometry x="210" y="1000" width="40" height="40" as="geometry"/>
                </mxCell>
                <mxCell id="32" value="Count" style="whiteSpace=wrap;html=1;aspect=fixed;" vertex="1" parent="1">
                    <mxGeometry x="325" y="1000" width="40" height="40" as="geometry"/>
                </mxCell>
                <mxCell id="34" value="/whoworeitbest" style="text;html=1;align=center;verticalAlign=middle;resizable=0;points=[];autosize=1;strokeColor=none;fillColor=none;" vertex="1" parent="1">
                    <mxGeometry x="160" y="830" width="100" height="20" as="geometry"/>
                </mxCell>
                <mxCell id="38" value="" style="edgeStyle=none;html=1;entryX=1;entryY=0.5;entryDx=0;entryDy=0;" edge="1" parent="1" source="35" target="27">
                    <mxGeometry relative="1" as="geometry">
                        <mxPoint x="400" y="940" as="targetPoint"/>
                    </mxGeometry>
                </mxCell>
                <mxCell id="35" value="calculate votes for Rajesh &amp;amp; Naresh &amp;amp; send dict back" style="rounded=1;whiteSpace=wrap;html=1;" vertex="1" parent="1">
                    <mxGeometry x="460" y="935" width="120" height="60" as="geometry"/>
                </mxCell>
                <mxCell id="36" value="/put" style="text;html=1;align=center;verticalAlign=middle;resizable=0;points=[];autosize=1;strokeColor=none;fillColor=none;" vertex="1" parent="1">
                    <mxGeometry x="350" y="570" width="40" height="20" as="geometry"/>
                </mxCell>
                <mxCell id="37" value="" style="endArrow=classic;html=1;exitX=0.5;exitY=1;exitDx=0;exitDy=0;exitPerimeter=0;entryX=0.5;entryY=0;entryDx=0;entryDy=0;" edge="1" parent="1" source="14" target="35">
                    <mxGeometry width="50" height="50" relative="1" as="geometry">
                        <mxPoint x="390" y="760" as="sourcePoint"/>
                        <mxPoint x="440" y="710" as="targetPoint"/>
                    </mxGeometry>
                </mxCell>
                <mxCell id="41" value="Rajesh Voter Names" style="rounded=0;whiteSpace=wrap;html=1;fontFamily=Comic Sans MS;" vertex="1" parent="1">
                    <mxGeometry x="254.5" y="210" width="180" height="20" as="geometry"/>
                </mxCell>
            </root>
        </mxGraphModel>
    </diagram>
</mxfile>